<?xml version="1.0" standalone="no"?>
<!DOCTYPE svg PUBLIC "-//W3C//DTD SVG 20010904//EN"
 "http://www.w3.org/TR/2001/REC-SVG-20010904/DTD/svg10.dtd">
<svg version="1.0" xmlns="http://www.w3.org/2000/svg"
 width="225.000000pt" height="225.000000pt" viewBox="0 0 225.000000 225.000000"
 preserveAspectRatio="xMidYMid meet">

<g transform="translate(0.000000,225.000000) scale(0.100000,-0.100000)"
fill="#000000" stroke="none">
<path d="M974 1999 c-103 -24 -198 -111 -230 -212 -14 -43 -25 -57 -63 -82
-61 -40 -103 -110 -109 -180 -6 -76 4 -117 43 -176 19 -28 35 -59 35 -69 0
-22 45 -60 71 -60 59 0 101 57 80 109 -15 36 -48 54 -92 49 -30 -3 -36 1 -52
32 -13 26 -17 52 -15 96 4 72 34 119 98 155 33 19 44 33 62 82 12 32 34 75 49
96 62 86 207 118 307 67 60 -31 85 -57 116 -127 38 -83 54 -93 151 -100 99 -6
152 -35 185 -99 36 -70 19 -172 -37 -222 -47 -43 -81 -48 -332 -48 l-240 0
-20 26 c-27 35 -26 59 4 89 23 24 31 25 136 25 104 0 113 -2 141 -25 39 -33
73 -32 109 4 35 36 37 70 5 107 -31 36 -90 39 -116 6 -17 -20 -27 -22 -137
-22 -130 0 -170 -12 -207 -62 -28 -38 -28 -117 0 -155 44 -61 62 -64 349 -61
246 3 262 4 301 25 49 26 98 80 119 130 19 45 19 150 0 196 -39 94 -119 147
-237 156 -57 4 -83 10 -89 21 -4 8 -18 37 -31 64 -58 122 -219 197 -354 165z
m366 -494 c18 -22 8 -50 -19 -50 -32 0 -49 28 -32 49 17 20 35 20 51 1z m-592
-177 c17 -17 15 -43 -4 -59 -31 -26 -70 25 -44 56 15 18 32 19 48 3z"/>
<path d="M1401 1019 c-13 -5 -30 -17 -37 -27 -14 -18 -19 -98 -8 -127 10 -26
62 -48 100 -40 30 5 64 36 64 57 0 14 -38 8 -44 -7 -9 -24 -62 -19 -80 7 -32
46 -7 108 43 108 16 0 34 -7 41 -15 7 -8 19 -15 26 -15 37 0 -8 56 -51 64 -16
3 -41 1 -54 -5z"/>
<path d="M220 1005 c0 -10 10 -15 30 -15 l30 0 0 -83 c0 -68 3 -84 15 -84 12
0 15 16 15 84 l0 83 30 0 c20 0 30 5 30 15 0 12 -15 15 -75 15 -60 0 -75 -3
-75 -15z"/>
<path d="M680 1010 c0 -5 9 -10 21 -10 11 0 17 5 14 10 -3 6 -13 10 -21 10 -8
0 -14 -4 -14 -10z"/>
<path d="M890 1010 c0 -5 9 -10 20 -10 11 0 20 5 20 10 0 6 -9 10 -20 10 -11
0 -20 -4 -20 -10z"/>
<path d="M1550 925 c0 -78 3 -95 15 -95 12 0 15 17 15 95 0 78 -3 95 -15 95
-12 0 -15 -17 -15 -95z"/>
<path d="M2020 988 c0 -25 -3 -29 -12 -20 -17 17 -54 15 -72 -4 -21 -20 -22
-107 -1 -124 8 -6 30 -12 50 -12 57 0 65 13 65 108 0 68 -3 84 -15 84 -10 0
-15 -10 -15 -32z m-11 -52 c17 -20 10 -67 -11 -79 -23 -15 -48 8 -48 42 0 45
35 66 59 37z"/>
<path d="M380 916 c0 -56 3 -67 22 -80 31 -22 64 -20 88 4 28 28 30 143 3 138
-14 -2 -19 -15 -21 -61 -3 -62 -19 -80 -48 -56 -11 9 -15 27 -12 66 3 45 0 53
-14 53 -15 0 -18 -10 -18 -64z"/>
<path d="M546 964 c-22 -22 -23 -141 -1 -141 11 0 15 13 15 52 0 55 17 82 45
71 11 -4 15 -21 15 -61 0 -48 2 -55 20 -55 17 0 20 7 20 53 0 68 -19 97 -65
97 -18 0 -41 -7 -49 -16z"/>
<path d="M680 902 c0 -76 1 -80 20 -75 19 5 21 12 18 77 -2 58 -6 71 -20 74
-16 3 -18 -6 -18 -76z"/>
<path d="M755 964 c-28 -28 -15 -57 33 -72 23 -8 42 -20 42 -28 0 -16 -36 -19
-45 -4 -3 6 -15 10 -26 10 -36 0 -18 -34 23 -44 46 -11 88 12 88 48 0 23 -10
30 -72 50 -10 3 -18 10 -18 16 0 13 33 13 47 -1 6 -6 18 -9 27 -7 15 3 15 5 1
26 -19 27 -75 30 -100 6z"/>
<path d="M890 906 c0 -70 2 -76 20 -76 19 0 21 5 18 72 -2 60 -6 73 -20 76
-16 3 -18 -6 -18 -72z"/>
<path d="M972 968 c-22 -22 -13 -28 29 -22 33 6 41 4 37 -6 -2 -8 -17 -17 -32
-21 -55 -15 -72 -51 -39 -84 21 -21 82 -14 100 12 7 9 13 38 13 65 0 37 -4 50
-19 58 -26 14 -74 13 -89 -2z m68 -87 c0 -17 -18 -31 -41 -31 -14 0 -11 38 4
43 25 11 37 7 37 -12z"/>
<path d="M1116 958 c-10 -14 -16 -44 -16 -75 0 -46 3 -53 20 -53 18 0 20 7 20
55 0 40 4 57 15 61 27 11 45 -16 45 -67 0 -37 4 -49 15 -49 24 0 21 112 -3
133 -27 25 -78 22 -96 -5z"/>
<path d="M1627 962 c-22 -25 -23 -105 -1 -123 24 -20 84 -16 100 6 21 28 18
91 -6 115 -25 25 -72 26 -93 2z m76 -33 c13 -20 1 -68 -18 -76 -22 -8 -45 16
-45 46 0 47 40 66 63 30z"/>
<path d="M1772 913 c3 -63 5 -69 31 -81 22 -11 32 -11 55 0 25 12 27 18 30 82
2 52 0 67 -10 64 -8 -3 -15 -28 -18 -64 -5 -55 -7 -59 -30 -59 -24 0 -25 3
-28 63 -2 47 -7 62 -18 62 -12 0 -14 -13 -12 -67z"/>
<path d="M254 695 c9 -13 16 -31 16 -40 0 -8 5 -15 10 -15 6 0 10 8 10 18 0
10 7 28 16 40 8 12 11 22 5 22 -5 0 -15 -8 -21 -17 -10 -17 -10 -17 -20 0 -6
9 -16 17 -22 17 -6 0 -3 -11 6 -25z"/>
<path d="M340 705 c-16 -19 -5 -61 18 -67 31 -8 62 9 62 35 0 13 -5 28 -12 35
-17 17 -53 15 -68 -3z m59 -9 c16 -20 3 -46 -24 -46 -13 0 -26 7 -29 16 -7 19
10 44 29 44 7 0 18 -6 24 -14z"/>
<path d="M441 688 c-1 -27 4 -40 17 -47 28 -15 62 13 62 50 0 40 -18 37 -22
-3 -2 -25 -8 -33 -23 -33 -15 0 -22 9 -26 35 l-6 35 -2 -37z"/>
<path d="M535 680 c0 -22 3 -40 8 -40 4 0 7 7 7 15 0 8 4 15 9 15 5 0 14 -7
21 -15 7 -8 17 -15 22 -15 7 0 6 5 -1 13 -8 10 -7 17 1 25 19 19 1 42 -34 42
-32 0 -33 -1 -33 -40z m55 15 c0 -8 -9 -15 -20 -15 -11 0 -20 7 -20 15 0 8 9
15 20 15 11 0 20 -7 20 -15z"/>
<path d="M650 681 c0 -40 1 -41 36 -41 35 0 35 1 32 38 -3 34 -6 37 -35 40
-32 3 -33 2 -33 -37z m55 19 c4 -6 -5 -10 -20 -10 -15 0 -24 4 -20 10 3 6 12
10 20 10 8 0 17 -4 20 -10z m5 -40 c0 -5 -11 -10 -25 -10 -14 0 -25 5 -25 10
0 6 11 10 25 10 14 0 25 -4 25 -10z"/>
<path d="M740 680 c0 -40 0 -40 38 -38 36 1 36 1 5 5 -40 5 -44 23 -5 24 25 1
26 1 4 7 -33 10 -31 26 4 33 28 6 27 7 -8 8 -38 1 -38 1 -38 -39z"/>
<path d="M830 701 c0 -12 8 -21 22 -23 12 -2 24 -9 26 -17 4 -11 -2 -13 -27
-8 -20 4 -30 3 -26 -3 10 -16 62 -12 69 6 4 11 -3 19 -24 27 -36 14 -40 31 -5
25 14 -3 25 -1 25 3 0 5 -13 9 -30 9 -23 0 -30 -5 -30 -19z"/>
<path d="M922 713 c11 -3 18 -17 21 -41 l4 -37 1 37 c1 25 7 38 20 41 9 3 -1
5 -23 5 -22 0 -32 -2 -23 -5z"/>
<path d="M1020 680 c0 -22 5 -40 10 -40 6 0 10 18 10 40 0 22 -4 40 -10 40 -5
0 -10 -18 -10 -40z"/>
<path d="M1063 713 c12 -3 17 -15 17 -39 0 -19 5 -34 10 -34 6 0 10 15 10 34
0 24 5 36 18 39 9 3 -3 5 -28 5 -25 0 -37 -2 -27 -5z"/>
<path d="M1170 678 c0 -24 4 -38 8 -32 4 6 20 14 35 18 22 5 28 12 25 29 -2
17 -11 23 -35 25 -33 3 -33 3 -33 -40z m56 21 c7 -12 -15 -31 -31 -26 -5 2
-11 11 -13 20 -4 19 32 24 44 6z"/>
<path d="M1268 683 l-14 -38 43 0 c24 0 43 1 43 2 0 14 -37 73 -45 73 -7 0
-19 -17 -27 -37z m42 -4 c0 -5 -7 -9 -15 -9 -9 0 -12 6 -9 15 6 15 24 11 24
-6z"/>
<path d="M1360 678 c0 -37 2 -40 13 -24 12 16 14 16 26 2 8 -9 18 -16 24 -16
7 0 7 4 -1 12 -8 8 -9 15 -1 25 18 21 2 43 -31 43 -29 0 -30 -2 -30 -42z m55
17 c0 -5 -10 -11 -22 -13 -16 -2 -23 2 -23 13 0 11 7 15 23 13 12 -2 22 -7 22
-13z"/>
<path d="M1453 713 c12 -3 17 -15 17 -39 0 -19 5 -34 10 -34 6 0 10 15 10 34
0 24 5 36 18 39 9 3 -3 5 -28 5 -25 0 -37 -2 -27 -5z"/>
<path d="M1530 680 c0 -22 5 -40 10 -40 6 0 10 12 10 26 l0 27 21 -27 c29 -36
39 -33 39 14 0 22 -4 40 -10 40 -5 0 -10 -12 -10 -27 l-1 -28 -20 28 c-28 37
-39 34 -39 -13z"/>
<path d="M1620 680 c0 -40 0 -40 38 -39 30 2 32 3 10 6 -35 5 -37 23 -3 23 14
0 25 5 25 10 0 6 -11 10 -25 10 -34 0 -32 18 3 23 22 3 20 4 -10 6 -38 1 -38
1 -38 -39z"/>
<path d="M1710 678 c0 -37 2 -40 13 -24 12 16 14 16 26 2 8 -9 18 -16 24 -16
7 0 7 4 -1 12 -8 8 -9 15 -1 25 18 21 2 43 -31 43 -29 0 -30 -2 -30 -42z m55
17 c0 -5 -10 -11 -22 -13 -16 -2 -23 2 -23 13 0 11 7 15 23 13 12 -2 22 -7 22
-13z"/>
</g>
</svg>
